<svg width="16" height="19" viewBox="0 0 16 19" fill="none" xmlns="http://www.w3.org/2000/svg">
<path d="M13.1444 9.44066C12.598 10.2011 11.5568 10.5195 10.6439 10.6107C10.0848 10.6665 9.63812 11.2236 9.07619 11.2236C8.69466 11.2236 9.0769 11.7698 9.44039 11.6538C11.1476 11.1093 11.8766 10.9224 12.2149 10.985C12.5273 11.0428 13.1117 12.0888 13.3648 12.6045C12.7356 12.6407 12.5259 12.0767 12.3812 11.9755C12.2655 11.8945 12.2221 12.2647 12.2149 12.4599C12.0775 12.3876 11.9039 12.2864 11.8894 11.9755C11.875 11.6646 11.7159 11.7441 11.5929 11.7586C11.47 11.7731 9.58243 12.3804 9.30038 12.4599C9.01833 12.5394 8.69289 12.6479 8.42531 12.8359C7.97692 13.0528 7.68764 12.9009 7.60809 12.5322C7.54444 12.2372 7.95763 11.3296 8.17218 10.9127C7.90701 11.0115 7.35641 11.212 7.27541 11.2236C7.23626 11.2292 6.96916 11.423 6.64508 11.6678C5.9816 12.169 5.51972 12.976 4.78037 13.3564C4.54271 13.4787 3.9342 14.323 3.34507 15.2072C2.65852 16.2376 1.69831 17.1556 1.14989 18.2657C0.895324 17.5311 1.22703 16.8992 1.42471 16.675C1.33792 16.5998 1.13784 16.6437 1.04864 16.675C1.29453 15.8291 2.15514 15.8291 2.12621 15.8291C2.28532 15.6918 4.15118 13.0239 4.19457 12.9009C4.22256 12.8217 4.20241 12.5529 4.4426 12.2887C4.80067 11.8948 5.37003 11.7594 5.75475 11.3915C6.17603 10.9886 6.4817 10.552 6.61007 10.327C6.36612 10.3103 6.11333 10.2637 5.86223 10.1978C4.37157 9.80649 2.74884 8.88875 1.60551 9.92216C1.47244 9.73707 1.62238 9.19916 1.71399 8.95334C1.38999 8.90706 0.913645 9.3775 0.71597 9.6185C0.501902 9.28303 0.689453 8.68341 0.809986 8.42554C0.381851 8.43711 0.0916056 8.6328 0 8.7292C0.354369 6.09023 3.06496 6.85772 3.0953 6.89277C2.95066 6.74238 2.96272 6.54572 2.98682 6.46619C4.62849 6.50957 5.39509 6.23483 5.87963 5.95286C9.69814 3.81999 11.3434 5.12863 11.9509 5.4576C12.5584 5.78657 13.6613 5.92032 14.4243 5.61666C15.3355 5.20455 15.1983 4.14227 15.0137 3.73684C14.8112 3.2922 13.6685 2.67762 13.2635 1.90041C12.8585 1.12319 13.2114 0.178036 13.6806 0.0462997C14.1276 -0.0792164 14.4468 0.0668065 14.6918 0.288097C14.8552 0.435629 15.3138 0.541149 15.5055 0.609835C15.6971 0.678521 16.0153 0.768897 15.9972 0.823122C15.9791 0.877347 15.6723 0.87011 15.6248 0.87011C15.5271 0.87011 15.4114 0.884571 15.5271 0.938796C15.7153 1.01511 15.6924 1.21026 15.4893 1.20752C15.0159 1.20114 14.5948 1.06826 14.2615 1.39067C13.8132 1.82448 14.7678 2.15706 15.2596 2.67762C15.7513 3.19819 16.2576 3.81998 15.8526 5.23707C15.712 5.72916 15.37 6.1882 14.9744 6.57775C14.1869 7.35318 13.7893 8.54313 13.1444 9.44066Z" fill="url(#paint0_linear_75_20)"/>
<defs>
<linearGradient id="paint0_linear_75_20" x1="12" y1="3" x2="2.5" y2="17" gradientUnits="userSpaceOnUse">
<stop stop-color="#CE66FF"/>
<stop offset="1" stop-color="#FE983B"/>
</linearGradient>
</defs>
</svg>
