<svg width="259" height="40" viewBox="0 0 259 40" fill="none" xmlns="http://www.w3.org/2000/svg">
<path d="M0.953125 22.6484C1.03125 22.6615 1.39583 22.7786 2.04688 23C2.71094 23.2083 3.51172 23.4492 4.44922 23.7227C5.38672 23.9831 6.32422 24.2174 7.26172 24.4258C8.21224 24.6211 9.01953 24.7188 9.68359 24.7188C10.2565 24.7188 10.7253 24.6341 11.0898 24.4648C11.4544 24.2956 11.6367 23.9831 11.6367 23.5273C11.6367 23.0326 11.3763 22.5833 10.8555 22.1797C10.3346 21.776 9.66406 21.3594 8.84375 20.9297C8.03646 20.5 7.17057 20.0117 6.24609 19.4648C5.33464 18.918 4.46875 18.2604 3.64844 17.4922C2.84115 16.724 2.17708 15.806 1.65625 14.7383C1.13542 13.6576 0.875 12.3685 0.875 10.8711C0.875 9.03516 1.25911 7.48568 2.02734 6.22266C2.79557 4.94661 3.82422 3.92448 5.11328 3.15625C6.41536 2.375 7.8737 1.80859 9.48828 1.45703C11.1159 1.10547 12.7826 0.929688 14.4883 0.929688C15.9336 0.929688 17.3008 1.00781 18.5898 1.16406C19.8789 1.32031 20.9661 1.48958 21.8516 1.67188C22.75 1.85417 23.3164 1.97786 23.5508 2.04297V11.0078C23.5508 11.0078 23.2773 10.9492 22.7305 10.832C22.1966 10.7148 21.5195 10.5846 20.6992 10.4414C19.8919 10.2982 19.0521 10.168 18.1797 10.0508C17.3203 9.93359 16.5651 9.875 15.9141 9.875C15.3151 9.875 14.8659 9.97917 14.5664 10.1875C14.2669 10.3958 14.1172 10.6432 14.1172 10.9297C14.1172 11.1641 14.2474 11.4245 14.5078 11.7109C14.7682 11.9844 15.0807 12.1992 15.4453 12.3555C16.8125 12.9544 18.1016 13.5664 19.3125 14.1914C20.5234 14.8164 21.5911 15.5391 22.5156 16.3594C23.4401 17.1797 24.1628 18.1823 24.6836 19.3672C25.2174 20.5391 25.4844 21.9779 25.4844 23.6836C25.4844 25.7148 24.9701 27.4857 23.9414 28.9961C22.9258 30.5065 21.4544 31.6784 19.5273 32.5117C17.6133 33.3451 15.3021 33.7617 12.5938 33.7617C10.263 33.7617 8.34245 33.651 6.83203 33.4297C5.32161 33.2083 4.13672 32.9609 3.27734 32.6875C2.41797 32.401 1.8125 32.1471 1.46094 31.9258C1.1224 31.7044 0.953125 31.5938 0.953125 31.5938V22.6484ZM46.207 21.2812C46.207 19.1589 45.8945 17.6354 45.2695 16.7109C44.6576 15.7865 43.8242 15.3242 42.7695 15.3242C42.1836 15.3242 41.7734 15.5716 41.5391 16.0664C41.3177 16.5612 41.207 17.1536 41.207 17.8438V33H29.6055V8.72266H36.0117L38.8047 12.5117C39.8854 11.0404 41.3438 9.88802 43.1797 9.05469C45.0156 8.22135 46.9167 7.80469 48.8828 7.80469C50.5234 7.80469 52.0273 8.14974 53.3945 8.83984C54.7617 9.51693 55.849 10.5 56.6562 11.7891C57.4766 13.0781 57.8867 14.6276 57.8867 16.4375V33H46.207V21.2812ZM61.7344 21.9648C61.7344 19.8294 62.0924 17.8958 62.8086 16.1641C63.5378 14.4323 64.5273 12.9414 65.7773 11.6914C67.0273 10.4414 68.4466 9.48438 70.0352 8.82031C71.6237 8.14323 73.2839 7.80469 75.0156 7.80469C76.4089 7.80469 77.7695 8.14974 79.0977 8.83984C80.4388 9.51693 81.5065 10.474 82.3008 11.7109L85.0938 8.72266H91.5V33H85.0938L82.3008 28.957C81.2982 30.4414 79.9505 31.6068 78.2578 32.4531C76.5651 33.2995 74.8203 33.7227 73.0234 33.7227C71.0443 33.7227 69.1953 33.2995 67.4766 32.4531C65.7578 31.5938 64.3711 30.2982 63.3164 28.5664C62.2617 26.8216 61.7344 24.6211 61.7344 21.9648ZM73.375 22.9219C73.375 23.5599 73.5247 24.1654 73.8242 24.7383C74.1237 25.3112 74.612 25.5977 75.2891 25.5977C75.9401 25.5977 76.7734 25.4023 77.7891 25.0117C78.8047 24.6081 79.8659 23.9375 80.9727 23V16.0859C80.5169 15.8125 80.0026 15.6758 79.4297 15.6758C78.6875 15.6758 77.9583 15.9036 77.2422 16.3594C76.526 16.8021 75.875 17.388 75.2891 18.1172C74.7161 18.8333 74.2539 19.6146 73.9023 20.4609C73.5508 21.3073 73.375 22.1276 73.375 22.9219ZM114.566 7.80469C116.754 7.80469 118.577 8.2474 120.035 9.13281C121.507 10.0182 122.607 11.2031 123.336 12.6875C124.078 14.1589 124.449 15.7995 124.449 17.6094C124.449 18.8594 124.267 20.181 123.902 21.5742C123.538 22.9674 122.952 24.3346 122.145 25.6758C121.35 27.0039 120.302 28.2148 119 29.3086C117.698 30.3893 116.122 31.2617 114.273 31.9258C112.424 32.5898 110.257 32.9479 107.77 33V39.3281H96.168V8.72266H102.574L105.289 12.4727C106.852 10.793 108.447 9.59505 110.074 8.87891C111.715 8.16276 113.212 7.80469 114.566 7.80469ZM112.613 15.8711C112.04 15.8711 111.441 16.099 110.816 16.5547C110.191 16.9974 109.612 17.5768 109.078 18.293C108.544 18.9961 108.108 19.7383 107.77 20.5195V26.125C108.108 25.8906 108.655 25.5326 109.41 25.0508C110.165 24.569 110.96 23.9766 111.793 23.2734C112.626 22.5573 113.336 21.7435 113.922 20.832C114.508 19.9206 114.801 18.9245 114.801 17.8438C114.801 17.3099 114.625 16.8477 114.273 16.457C113.935 16.0664 113.382 15.8711 112.613 15.8711ZM128.355 1.80859H131.52L148.551 13.957V1.80859H159.547V33H155.348L139.312 22.2773V33H128.355V1.80859ZM177.281 33.7227C175.536 33.7227 173.837 33.4232 172.184 32.8242C170.53 32.2122 169.039 31.3398 167.711 30.207C166.396 29.0612 165.348 27.694 164.566 26.1055C163.798 24.5039 163.414 22.7201 163.414 20.7539C163.414 18.8138 163.779 17.0495 164.508 15.4609C165.237 13.8724 166.24 12.5117 167.516 11.3789C168.792 10.2331 170.263 9.35417 171.93 8.74219C173.609 8.11719 175.393 7.80469 177.281 7.80469C179.938 7.80469 182.34 8.33203 184.488 9.38672C186.637 10.4284 188.336 11.9258 189.586 13.8789C190.849 15.819 191.48 18.1367 191.48 20.832C191.48 22.8112 191.096 24.5951 190.328 26.1836C189.56 27.7721 188.512 29.1263 187.184 30.2461C185.855 31.3659 184.339 32.2253 182.633 32.8242C180.94 33.4232 179.156 33.7227 177.281 33.7227ZM176.051 25.832C176.624 25.832 177.262 25.5651 177.965 25.0312C178.668 24.4844 179.345 23.7943 179.996 22.9609C180.647 22.1146 181.181 21.2292 181.598 20.3047C182.027 19.3802 182.242 18.5339 182.242 17.7656C182.242 17.1797 182.086 16.6458 181.773 16.1641C181.474 15.6823 180.953 15.4414 180.211 15.4414C179.534 15.4414 178.818 15.7018 178.062 16.2227C177.307 16.7305 176.598 17.401 175.934 18.2344C175.283 19.0547 174.749 19.9336 174.332 20.8711C173.928 21.7956 173.727 22.681 173.727 23.5273C173.727 24.1003 173.896 24.6276 174.234 25.1094C174.573 25.5911 175.178 25.832 176.051 25.832ZM194.938 24.7188C195.185 24.7318 195.654 24.862 196.344 25.1094C197.034 25.3568 197.809 25.6042 198.668 25.8516C199.527 26.0859 200.328 26.2031 201.07 26.2031C201.448 26.2031 201.754 26.138 201.988 26.0078C202.223 25.8646 202.34 25.6107 202.34 25.2461C202.34 24.7643 202.086 24.3607 201.578 24.0352C201.083 23.7096 200.465 23.3711 199.723 23.0195C198.98 22.6549 198.232 22.1927 197.477 21.6328C196.734 21.0729 196.109 20.3242 195.602 19.3867C195.107 18.4362 194.859 17.2122 194.859 15.7148C194.859 14.2565 195.165 13.026 195.777 12.0234C196.402 11.0078 197.236 10.194 198.277 9.58203C199.332 8.95703 200.51 8.50781 201.812 8.23438C203.128 7.94792 204.475 7.80469 205.855 7.80469C207.04 7.80469 208.16 7.86328 209.215 7.98047C210.27 8.09766 211.161 8.22786 211.891 8.37109C212.633 8.5013 213.102 8.59245 213.297 8.64453V16.0078C213.297 16.0078 213.062 15.9557 212.594 15.8516C212.138 15.7474 211.565 15.6302 210.875 15.5C210.185 15.3698 209.488 15.2526 208.785 15.1484C208.082 15.0443 207.483 14.9922 206.988 14.9922C206.611 14.9922 206.318 15.0768 206.109 15.2461C205.914 15.4154 205.816 15.6107 205.816 15.832C205.816 16.0404 205.927 16.2422 206.148 16.4375C206.37 16.6328 206.819 16.8672 207.496 17.1406C208.525 17.5573 209.482 17.9805 210.367 18.4102C211.253 18.8268 212.027 19.3281 212.691 19.9141C213.368 20.5 213.889 21.2487 214.254 22.1602C214.632 23.0716 214.82 24.2305 214.82 25.6367C214.82 28.319 213.87 30.3372 211.969 31.6914C210.068 33.0456 207.542 33.7227 204.391 33.7227C201.891 33.7227 199.957 33.5729 198.59 33.2734C197.223 32.987 196.272 32.7005 195.738 32.4141C195.204 32.1146 194.938 31.9648 194.938 31.9648V24.7188ZM217.75 8.72266H219.977V2.16016L231.656 0.96875V8.72266H237.184V14.9141H231.656V21.0469C231.656 22.8177 232.053 24.1328 232.848 24.9922C233.642 25.8516 235.087 26.2812 237.184 26.2812V31.2422C236.064 31.9974 234.788 32.6029 233.355 33.0586C231.923 33.5273 230.465 33.7617 228.98 33.7617C227.34 33.7617 225.836 33.4167 224.469 32.7266C223.115 32.0365 222.027 31.0404 221.207 29.7383C220.387 28.4362 219.977 26.8802 219.977 25.0703V14.9141H217.75V8.72266ZM258.141 17.8828C257.333 17.8828 256.493 18.0911 255.621 18.5078C254.749 18.9245 254.013 19.4258 253.414 20.0117C252.828 20.5977 252.535 21.151 252.535 21.6719V33H240.777V8.72266H252.535V11.3203C253.199 10.3177 254.02 9.51693 254.996 8.91797C255.986 8.31901 257.034 7.96094 258.141 7.84375V17.8828Z" fill="url(#paint0_linear_96_340)"/>
<defs>
<linearGradient id="paint0_linear_96_340" x1="-1" y1="19" x2="260" y2="19" gradientUnits="userSpaceOnUse">
<stop stop-color="#CE66FF"/>
<stop offset="1" stop-color="#FE983B"/>
</linearGradient>
</defs>
</svg>
